/* XPM */
static char *result[] = {
/* columns rows colors chars-per-pixel */
"60 60 226 2 ",
"   c black",
".  c #030300",
"X  c #040300",
"o  c #050400",
"O  c #070600",
"+  c #090800",
"@  c #0B0900",
"#  c #0D0B00",
"$  c #0F0C00",
"%  c #0F0D00",
"&  c #110E00",
"*  c #131000",
"=  c #151200",
"-  c #161200",
";  c #171300",
":  c #181400",
">  c #1B1700",
",  c #1D1800",
"<  c #1E1800",
"1  c #1F1A00",
"2  c #231D00",
"3  c #251F00",
"4  c #272000",
"5  c #2B2400",
"6  c #2D2500",
"7  c #302800",
"8  c #332A00",
"9  c #3A3000",
"0  c #3C3200",
"q  c #3E3300",
"w  c #37300B",
"e  c #423600",
"r  c #423700",
"t  c #443800",
"y  c #463A00",
"u  c #483C00",
"i  c #4A3D00",
"p  c #4C3F00",
"a  c #4E4100",
"s  c #504200",
"d  c #544600",
"f  c #584900",
"g  c #5C4C00",
"h  c #5E4E00",
"j  c #604F00",
"k  c #665400",
"l  c #6D5A00",
"z  c #715D00",
"x  c #735F00",
"c  c #756100",
"v  c #776200",
"b  c #7F6900",
"n  c #816B00",
"m  c #8B7300",
"M  c #8D7500",
"N  c #8F7600",
"B  c #86710F",
"V  c #917800",
"C  c #957B00",
"Z  c #997E00",
"A  c #A08400",
"S  c #A18500",
"D  c #A48700",
"F  c #A88B00",
"G  c #AA8C00",
"H  c #AC8E00",
"J  c #AE9000",
"K  c #B29300",
"L  c #B49500",
"P  c #B69600",
"I  c #B89800",
"U  c #BC9B00",
"Y  c #BE9D00",
"T  c #B9A023",
"R  c #C09F00",
"E  c #C2A000",
"W  c #C6A400",
"Q  c #C8A500",
"!  c #CAA700",
"~  c #CCA800",
"^  c #CFAB00",
"/  c #D3AE00",
"(  c #D7B200",
")  c #D8B200",
"_  c #D9B300",
"`  c #DBB500",
"'  c #DDB600",
"]  c #E1BA00",
"[  c #E3BB00",
"{  c #E5BD00",
"}  c #E7BF00",
"|  c #E9C000",
" . c #EBC200",
".. c #EDC400",
"X. c #EFC500",
"o. c #F1C700",
"O. c #F3C900",
"+. c #F5CA00",
"@. c #F7CC00",
"#. c #F9CE00",
"$. c #FBCF00",
"%. c #FDD100",
"&. c #FFD300",
"*. c #FFD301",
"=. c #FFD302",
"-. c #FFD303",
";. c #FFD304",
":. c #FFD305",
">. c #FFD407",
",. c #FFD408",
"<. c #FFD409",
"1. c #FFD40A",
"2. c #FFD40B",
"3. c #FFD50C",
"4. c #FFD50D",
"5. c #FFD50F",
"6. c #FFD510",
"7. c #FFD511",
"8. c #FFD612",
"9. c #FFD613",
"0. c #FFD614",
"q. c #FFD615",
"w. c #FFD616",
"e. c #FFD617",
"r. c #FFD718",
"t. c #FFD719",
"y. c #FFD71A",
"u. c #FFD71B",
"i. c #FFD71C",
"p. c #FFD81D",
"a. c #FFD820",
"s. c #FFD821",
"d. c #FFD822",
"f. c #FFD923",
"g. c #FFD925",
"h. c #FFD926",
"j. c #FFD927",
"k. c #FFD928",
"l. c #FFDA29",
"z. c #FFDA2A",
"x. c #FFDA2B",
"c. c #FFDA2C",
"v. c #FFDA2D",
"b. c #FFDB2F",
"n. c #F8D635",
"m. c #FFDB30",
"M. c #FFDB33",
"N. c #FFDB34",
"B. c #FFDC36",
"V. c #FFDC38",
"C. c #FFDC39",
"Z. c #FFDD3A",
"A. c #FFDD3B",
"S. c #FFDD3C",
"D. c #FFDD3E",
"F. c #FFDE40",
"G. c #FFDE42",
"H. c #FFDE44",
"J. c #FFDF46",
"K. c #FFDF47",
"L. c #FFDF48",
"P. c #FFDF49",
"I. c #FFDF4A",
"U. c #FFDF4B",
"Y. c #FFE04C",
"T. c #FFE04E",
"R. c #FFE04F",
"E. c #FFE050",
"W. c #FFE152",
"Q. c #FFE156",
"!. c #FFE258",
"~. c #FFE25A",
"^. c #FFE25C",
"/. c #FFE360",
"(. c #FFE362",
"). c #FFE464",
"_. c #FFE56B",
"`. c #FFE56C",
"'. c #FFE56D",
"]. c #FFE56E",
"[. c #FFE66F",
"{. c #FFE671",
"}. c #FFE672",
"|. c #FFE777",
" X c #FFE779",
".X c #FFE981",
"XX c #FFE985",
"oX c #FFEA87",
"OX c #FFEA89",
"+X c #FFEA8B",
"@X c #FFEB8D",
"#X c #FFEB8F",
"$X c #FFED99",
"%X c #FFED9C",
"&X c #FFEE9E",
"*X c #FFEEA0",
"=X c #FFEFA4",
"-X c #FFEFA8",
";X c #FFF0AA",
":X c #FFF0AC",
">X c #FFF1B2",
",X c #FFF3BE",
"<X c #FFF4C4",
"1X c #FFF5C6",
"2X c #FFF7D3",
"3X c #FFF8D7",
"4X c #FFF8D9",
"5X c #FFF8DB",
"6X c #FFF9DD",
"7X c #FFF9DF",
"8X c #FFF9E1",
"9X c #FFFAE3",
"0X c #FFFAE5",
"qX c #FFFAE7",
"wX c #FFFBE9",
"eX c #FFFBEB",
"rX c #FFFBED",
"tX c #FFFCEF",
"yX c #FFFCF1",
"uX c #FFFCF3",
"iX c #FFFDF5",
"pX c #FFFDF7",
"aX c #FFFDF9",
"sX c #FFFEFB",
"dX c #FFFEFD",
"fX c white",
/* pixels */
"fXfXfXfXfXfXfXfXfXfXfXfXfXfXfXfXfXfXfXfXfXfXfXfXfXfXfXfXfXfXfXfXfXfXfXfXfXfXfXfXfXfXfXfXfXfXfXfXfXfXfXfXfXfXfXfXfXfXfXfX",
"fXfXfXfXfXfXfXfXfXfXfXfXfXfXfXfXfXfXfXfXfXfXfXfXfXfXfXfXfXfXfXfXfXfXfXfXfXfXfXfXfXfXfXfXfXfXfXfXfXfXfXfXfXfXfXfXfXfXfXfX",
"fXfXfXfXfXfXfXfXfXfXfXfXfXfXfXfXfXfXfXfXfXfXfXfXfXfXfXfXfXfXfXfXfXfXfXfXfXfXfXfXfXfXfXfXfXfXfXfXfXfXfXfXfXfXfXfXfXfXfXfX",
"fXfXfXfXfXfXfXfXfXfXfXfXfXfXfXfXfXfXfXfXfXfXfXfXfXfXfXfXfXfXfXfXfXfXfXfXfXfXfXfXfXfXfXfXfXfXfXfXfXfXfXfXfXfXfXfXfXfXfXfX",
"fXfXfXfXfXfXfXfXfXfXfXfXfXfXfXfXfXfXfXfXfXfXfXfXfXfXfXfXfXfXfXfXfXfXfXfXfXfXfXfXfXfXfXfXfXfXfXfXfXfXfXfXfXfXfXfXfXfXfXfX",
"fXfXfXfXfXfXfXfXfXfXfXfXfXfXfXfXfXfXfXfXfXfXfXfXfXfXfXfXfXfXfXfXfXfXfXfXfXfXfXfXfXfXfXfXfXfXfXfXfXfXfXfXfXfXfXfXfXfXfXfX",
"fXfXfXfXfXfXfXfXfXfXfXfXfXfXfXfXfXfXfXfXfXfXfXfXfXfXfXfXfXfXfXfXfXfXfXfXfXfXfXfXfXfXfXfXfXfXfXfXfXfXfXfXfXfXfXfXfXfXfXfX",
"fXfXfXfXfXfXfXfXfXfXfXfXfXfXfXfXfXfXfXfXfXfXfXfXfXfXfXfXfXfXfXfXfXfXfXfXfXfXfXfXfXfXfXfXfXfXfXfXfXfXfXfXfXfXfXfXfXfXfXfX",
"fXfXfXfXfXfXfXfXfXfXfXfXfXfXfXfXfXfXfXfXfXfXfXfXfXfXfXfXfXfXfXfXfXfXfXfXfXfXfXfXfXfXfXfXfXfXfXfXfXfXfXfXfXfXfXfXfXfXfXfX",
"fXfXfXfXfXfXfXfXfXfXfXfXfXfXfXfXfXfXfXfXfXfXfXfXfXfXfXfXfX5X*X'.H.T j.b.D./.@X1XuXfXfXfXfXfXfXfXfXfXfXfXfXfXfXfXfXfXfXfX",
"fXfXfXfXfXfXfXfXfXfXfXfXfXfXfXfXfXfXfXfXfXfXfXfXfXfX0X+Xb.&.&.&.&.5 ` &.&.&.&.&.7._.5XfXfXfXfXfXfXfXfXfXfXfXfXfXfXfXfXfX",
"fXfXfXfXfXfXfXfXfXfXfXfXfXfXfXfXfXfXfXfXfXfXfXfXeX|.>.&.&.,.p.l.N.w B p.A.E.P.x.&.&.-.|.eXfXfXfXfXfXfXfXfXfXfXfXfXfXfXfX",
"fXfXfXfXfXfXfXfXfXfXfXfXfXfXfXfXfXfXfXfXfXfXsX*X3.&.&.:.p.w.&.&.&.0 y &.&.&.&.&.d.M.&.&.q.>XfXfXfXfXfXfXfXfXfXfXfXfXfXfX",
"fXfXfXfXfXfXfXfXfXfXfXfXfXfXfXfXfXfXfXfXfXrXT.&.&.t.K.&.&.&.&.&.&.9 > &.&.&.&.&.&.&.x.L.&.&. XsXfXfXfXfXfXfXfXfXfXfXfXfX",
"fXfXfXfXfXfXfXfXfXfXfXfXfXfXfXfXfXfXfXfX7Xl.&.;.J.A.&.&.&.&.&.&.&.8 o #.&.&.&.&.&.&.&.t.I.:.&.^.uXfXfXfXfXfXfXfXfXfXfXfX",
"fXfXfXfXfXfXfXfXfXfXfXfXfXfXfXfXfXfXfX7Xl.&.e.<.&.&.&.&.&.&.&.&.&.2   O.&.&.&.&.&.&.&.&.&.s.7.&.W.sXfXfXfXfXfXfXfXfXfXfX",
"fXfXfXfXfXfXfXfXfXfXfXfXfXfXfXfXfXfXqXj.&.<.-.&.&.&.&.&.&.&.&.&.&.> o ) ( ' @.&.&.&.&.&.&.&.r.2.&.XXfXfXfXfXfXfXfXfXfXfX",
"fXfXfXfXfXfXfXfXfXfXfXfXfXfXfXfXfXdXE.&.y.w.&.&.&.&.&.&.&.&.o.R v X         2 ! &.&.&.&.&.&.&.<.-.&.-XfXfXfXfXfXfXfXfXfX",
"fXfXfXfXfXfXfXfXfXfXfXfXfXfXfXfXfX*X&.2.=.&.&.&.&.&.&.&.! h +     .   G _ [ O.@.+.&.&.&.&.&.&.&.<.&.:.2XfXfXfXfXfXfXfXfX",
"fXfXfXfXfXfXfXfXfXfXfXfXfXfXfXfXwX7.&.t.&.&.&.&.&.&.} j     8 m { &   o.&.&.&.&.&.&.&.&.&.&.&.&.&.h.&.V.sXfXfXfXfXfXfXfX",
"fXfXfXfXfXfXfXfXfXfXfXfXfXfXfXfX|.&.c.&.&.&.&.&.&.] 3   , J %.&.&.&   o.&.&.&.&.&.&.&.&.&.&.&.&.&.&.9.&.*XfXfXfXfXfXfXfX",
"fXfXfXfXfXfXfXfXfXfXfXfXfXfXfX8X:.&.8.&.&.&.&.&.&.u   i | &.&.&.&.=   } &.&.&.&.&.&.&.&.&.&.&.&.&.&.2.&.q.eXfXfXfXfXfXfX",
"fXfXfXfXfXfXfXfXfXfXfXfXfXfXfX|.&.c.&.&.&.&.&.&./   = ] &.&.&.&.&.>   } &.&.&.&.&.&.&.&.&.&.&.&.&.&.&.j.&.OXfXfXfXfXfXfX",
"fXfXfXfXfXfXfXfXfXfXfXfXfXfXiX9.&.x.&.&.&.&.&.&.P   s &.&.&.&.&.&.3   ' &.&.&.&.&.&.&.&.&.&.&.&.&.&.&.6.&.7.tXfXfXfXfXfX",
"fXfXfXfXfXfXfXfXfXfXfXfXfXfX>X&.q.-.&.&.&.&.&.&.{ O . ~ &.&.&.&.&.8   ! &.&.&.&.&.&.&.&.&.&.&.&.&.&.&.&.N.&.&XfXfXfXfXfX",
"fXfXfXfXfXfXfXfXfXfXfXfXfXfX^.&.L.&.&.&.&.&.&.&.&.N   o N #.&.&.&.t   Y &.&.&.&.&.&.&.&.&.&.&.&.&.&.&.&./.&.Z.fXfXfXfXfX",
"fXfXfXfXfXfXfXfXfXfXfXfXfXsXe.&.t.&.&.&.&.&.&.&.&.&.D #   8 K O.&.a   L &.&.&.&.&.&.&.&.&.&.&.&.&.&.&.&.w.7.&.4XfXfXfXfX",
"fXfXfXfXfXfXfXfXfXfXfXfXfX5X&.u.&.&.&.&.&.&.&.&.&.&.&.' p     & j e   S &.&.&.&.&.&.&.&.&.&.&.&.&.&.&.&.&.R.&.#XfXfXfXfX",
"fXfXfXfXfXfXfXfXfXfXfXfXfX-X&.x.&.&.&.&.&.&.&.&.&.&.&.&.&.W p .       - c Q %.&.&.&.&.&.&.&.&.&.&.&.&.&.&.`.&.T.fXfXfXfX",
"fXfXfXfXfXfXfXfXfXfXfXfXfX.X&.f.&.&.&.&.&.&.&.&.&.&.&.&.&.&.&.| F 7         5 V  .&.&.&.&.&.&.&.&.&.&.&.&.].&.g.fXfXfXfX",
"fXfXfXfXfXfXfXfXfXfXfXfXfX'.&.0.&.&.&.&.&.&.&.&.&.&.&.&.&.&.&.&.&.m   g x ;     + x { &.&.&.&.&.&.&.&.&.&.i.:.>.aXfXfXfX",
"fXfXfXfXfXfXfXfXfXfXfXfXfX(.&.,.&.&.&.&.&.&.&.&.&.&.&.&.&.&.&.&.&.C   k &.@.P p     + C #.&.&.&.&.&.&.&.&.&.1.&.yXfXfXfX",
"fXfXfXfXfXfXfXfXfXfXfXfXfX'.&.:.&.&.&.&.&.&.&.&.&.&.&.&.&.&.&.&.&.G   f &.&.&.&.^ d     q / &.&.&.&.&.&.&.&.4.&.qXfXfXfX",
"fXfXfXfXfXfXfXfXfXfXfXfXfX{.&.,.&.&.&.&.&.&.&.&.&.&.&.&.&.&.&.&.&.L   i &.&.&.&.&.&.P >   # U &.&.&.&.&.&.C.>.-.uXfXfXfX",
"fXfXfXfXfXfXfXfXfXfXfXfXfX.X&.2.&.&.&.&.&.&.&.&.&.&.&.&.&.&.&.&.&.Q   9 &.&.&.&.&.&.&...g   @ ] &.&.&.&.&.U.&.t.fXfXfXfX",
"fXfXfXfXfXfXfXfXfXfXfXfXfX*X&.8.&.&.&.&.&.&.&.&.&.&.&.&.&.&.&.&.&./   4 &.&.&.&.&.&.&.&.%.p   q $.&.&.&.&.Z.&.Y.fXfXfXfX",
"fXfXfXfXfXfXfXfXfXfXfXfXfX1X&.7.&.&.&.&.&.&.&.&.&.&.&.&.&.&.&.&.&. .. 3 &.&.&.&.&.&.&.&.&.| ;   E &.&.&.&.G.&.OXfXfXfXfX",
"fXfXfXfXfXfXfXfXfXfXfXfXfXuX<.&.*.&.&.&.&.&.&.&.&.&.&.&.&.&.&.&.&.#.o 1 &.&.&.&.&.&.&.&.&.&.l   C &.&.&.l.4.&.3XfXfXfXfX",
"fXfXfXfXfXfXfXfXfXfXfXfXfXfXI.&.&.&.&.&.&.&.&.&.&.&.&.&.&.&.&.&.&.#.O & &.&.&.&.&.&.&.&.#.Z o   Q &.&.&.W.&.B.fXfXfXfXfX",
"fXfXfXfXfXfXfXfXfXfXfXfXfXfX;X&.0.=.&.&.&.&.&.&.&.&.&.&.&.&.&.&.&.&.* , &.&.&.&.%.{ L z &     z &.&.&.z.f.&.-XfXfXfXfXfX",
"fXfXfXfXfXfXfXfXfXfXfXfXfXfXuX7.&.=.&.&.&.&.&.&.&.&.&.&.&.Y v U [ } : < H M l r ;         6 L &.&.&.&.H.&.g.pXfXfXfXfXfX",
"fXfXfXfXfXfXfXfXfXfXfXfXfXfXfX=X&.>.&.&.&.&.&.&.&.&.&.&.&.z                       * y b ~ %.&.&.&.&.v.-.&.,XfXfXfXfXfXfX",
"fXfXfXfXfXfXfXfXfXfXfXfXfXfXfXdXQ.&.i.-.&.&.&.&.&.&.&.&.&. .n q > > O $ p l C I [ %.&.&.&.&.&.&.&.m.9.&. XfXfXfXfXfXfXfX",
"fXfXfXfXfXfXfXfXfXfXfXfXfXfXfXfXrXv.&.a.3.&.4.2.&.&.&.&.&.&.&.&.&.&.6 c &.&.&.&.&.&.&.&.&.&.&.&.k.5.&.E.aXfXfXfXfXfXfXfX",
"fXfXfXfXfXfXfXfXfXfXfXfXfXfXfXfXfXeXI.&.8.&.&.&.:.&.&.&.&.&.&.&.&.$.% K &.&.&.&.&.&.&.&.&.&.B.B.&.&.!.uXfXfXfXfXfXfXfXfX",
"fXfXfXfXfXfXfXfXfXfXfXfXfXfXfXfXfXfXpXXX:.&.4.&.:.&.&.&.&.&.&.&.&.} # X.&.&.&.&.&.&.&.f.G.V.<.&.-.#XdXfXfXfXfXfXfXfXfXfX",
"fXfXfXfXfXfXfXfXfXfXfXfXfXfXfXfXfXfXfXfX5XoXF.g.&.&.=.*.h.w.6.=.&.#.A &.&.&.&.w.C.U.N.:.&.&.-.!.2XfXfXfXfXfXfXfXfXfXfXfX",
"fXfXfXfXfXfXfXfXfXfXfXfXfXfXfXfXfXfXfXfXfXfXfXfX<XW.-.&.&.&.B.[.}.~.n.s.S.P.H.t.&.&.&.&.H.OX6XfXfXfXfXfXfXfXfXfXfXfXfXfX",
"fXfXfXfXfXfXfXfXfXfXfXfXfXfXfXfXfXfXfXfXfXfXfXfXfXfX9X$XI.:.&.&.&.&.&.&.&.&.&.&.q.W.%X0XfXfXfXfXfXfXfXfXfXfXfXfXfXfXfXfX",
"fXfXfXfXfXfXfXfXfXfXfXfXfXfXfXfXfXfXfXfXfXfXfXfXfXfXfXfXfXyX<X#X'.(.).'.|.+X:X6XdXfXfXfXfXfXfXfXfXfXfXfXfXfXfXfXfXfXfXfX",
"fXfXfXfXfXfXfXfXfXfXfXfXfXfXfXfXfXfXfXfXfXfXfXfXfXfXfXfXfXfXfXfXfXfXfXfXfXfXfXfXfXfXfXfXfXfXfXfXfXfXfXfXfXfXfXfXfXfXfXfX",
"fXfXfXfXfXfXfXfXfXfXfXfXfXfXfXfXfXfXfXfXfXfXfXfXfXfXfXfXfXfXfXfXfXfXfXfXfXfXfXfXfXfXfXfXfXfXfXfXfXfXfXfXfXfXfXfXfXfXfXfX",
"fXfXfXfXfXfXfXfXfXfXfXfXfXfXfXfXfXfXfXfXfXfXfXfXfXfXfXfXfXfXfXfXfXfXfXfXfXfXfXfXfXfXfXfXfXfXfXfXfXfXfXfXfXfXfXfXfXfXfXfX",
"fXfXfXfXfXfXfXfXfXfXfXfXfXfXfXfXfXfXfXfXfXfXfXfXfXfXfXfXfXfXfXfXfXfXfXfXfXfXfXfXfXfXfXfXfXfXfXfXfXfXfXfXfXfXfXfXfXfXfXfX",
"fXfXfXfXfXfXfXfXfXfXfXfXfXfXfXfXfXfXfXfXfXfXfXfXfXfXfXfXfXfXfXfXfXfXfXfXfXfXfXfXfXfXfXfXfXfXfXfXfXfXfXfXfXfXfXfXfXfXfXfX",
"fXfXfXfXfXfXfXfXfXfXfXfXfXfXfXfXfXfXfXfXfXfXfXfXfXfXfXfXfXfXfXfXfXfXfXfXfXfXfXfXfXfXfXfXfXfXfXfXfXfXfXfXfXfXfXfXfXfXfXfX",
"fXfXfXfXfXfXfXfXfXfXfXfXfXfXfXfXfXfXfXfXfXfXfXfXfXfXfXfXfXfXfXfXfXfXfXfXfXfXfXfXfXfXfXfXfXfXfXfXfXfXfXfXfXfXfXfXfXfXfXfX",
"fXfXfXfXfXfXfXfXfXfXfXfXfXfXfXfXfXfXfXfXfXfXfXfXfXfXfXfXfXfXfXfXfXfXfXfXfXfXfXfXfXfXfXfXfXfXfXfXfXfXfXfXfXfXfXfXfXfXfXfX",
"fXfXfXfXfXfXfXfXfXfXfXfXfXfXfXfXfXfXfXfXfXfXfXfXfXfXfXfXfXfXfXfXfXfXfXfXfXfXfXfXfXfXfXfXfXfXfXfXfXfXfXfXfXfXfXfXfXfXfXfX",
"fXfXfXfXfXfXfXfXfXfXfXfXfXfXfXfXfXfXfXfXfXfXfXfXfXfXfXfXfXfXfXfXfXfXfXfXfXfXfXfXfXfXfXfXfXfXfXfXfXfXfXfXfXfXfXfXfXfXfXfX"
};
