/* XPM */
static char *result[] = {
/* columns rows colors chars-per-pixel */
"60 60 117 2 ",
"   c #010101",
".  c #0A0505",
"X  c #0C0C0C",
"o  c #131313",
"O  c #1D1414",
"+  c #1B1B1B",
"@  c #3E020C",
"#  c #201C1C",
"$  c #371016",
"%  c #391319",
"&  c #222222",
"*  c #2D2D2D",
"=  c #322627",
"-  c #372629",
";  c #3D3435",
":  c #3A3A3A",
">  c #580010",
",  c #6E0E1F",
"<  c #770016",
"1  c #5A1621",
"2  c #432228",
"3  c #5A252E",
"4  c #5E383F",
"5  c #61202B",
"6  c #454545",
"7  c #4C4C4C",
"8  c #525252",
"9  c #5B5B5B",
"0  c #626262",
"q  c #6D6D6D",
"w  c #757575",
"e  c #7C7C7C",
"r  c #9C001C",
"t  c #DF0029",
"y  c #FF002F",
"u  c #FF0533",
"i  c #FF0936",
"p  c #FF0E3A",
"a  c #FF113C",
"s  c #9E3A4B",
"d  c #FF1641",
"f  c #FF1C45",
"g  c #FF1F48",
"h  c #D02A48",
"j  c #FF234B",
"k  c #FF2C52",
"l  c #FF3156",
"z  c #FF3459",
"x  c #FF395D",
"c  c #FF3E61",
"v  c #A74254",
"b  c #935F68",
"n  c #876369",
"m  c #93797D",
"M  c #FF4365",
"N  c #FF4B6B",
"B  c #FF5271",
"V  c #FF5876",
"C  c #FF5C7A",
"Z  c #FF617D",
"A  c #A87B83",
"S  c #E26A80",
"D  c #FF6581",
"F  c #FF6C86",
"G  c #FF728C",
"H  c #FF7790",
"J  c #FF7B93",
"K  c #828282",
"L  c #8E8E8E",
"P  c #949393",
"I  c #9D9D9D",
"U  c #AA8E92",
"Y  c #B58C93",
"T  c #B8949A",
"R  c #A3A3A3",
"E  c #ABA4A5",
"W  c #ADADAD",
"Q  c #BCAEB0",
"!  c #B3B3B3",
"~  c #BBBBBB",
"^  c #D6909D",
"/  c #F7879B",
"(  c #FF839A",
")  c #FF899E",
"_  c #FF8CA1",
"`  c #FF92A6",
"'  c #FF96A9",
"]  c #FF9BAD",
"[  c #C8BABC",
"{  c #FFA2B3",
"}  c #F4ADBA",
"|  c #FFABBA",
" . c #E1B3BB",
".. c #FFB4C1",
"X. c #FFBAC6",
"o. c #FFBCC8",
"O. c #C5C5C5",
"+. c #CBCACA",
"@. c #D5CDCE",
"#. c #D4D3D3",
"$. c #DDDDDD",
"%. c #FFC1CC",
"&. c #FFC6D0",
"*. c #FFCCD4",
"=. c #FFD4DC",
"-. c #FFDCE2",
";. c #E5E5E5",
":. c #EFE6E7",
">. c #EDEDED",
",. c #FFE1E6",
"<. c #FFE5E9",
"1. c #FFEAEE",
"2. c #FFEEF1",
"3. c #F4F4F4",
"4. c #FFF3F5",
"5. c #FFF7F8",
"6. c #FFFFFF",
/* pixels */
"6.6.6.6.6.6.6.6.6.6.6.6.6.6.6.6.6.6.6.6.6.6.6.6.6.6.6.6.6.6.6.6.6.6.6.6.6.6.6.6.6.6.6.6.6.6.6.6.6.6.6.6.6.6.6.6.6.6.6.6.",
"6.6.6.6.6.6.6.6.6.6.6.6.6.6.6.6.6.6.6.6.6.6.6.6.6.6.6.6.6.6.6.6.6.6.6.6.6.6.6.6.6.6.6.6.6.6.6.6.6.6.6.6.6.6.6.6.6.6.6.6.",
"6.6.6.6.6.6.6.6.6.6.6.6.6.6.6.6.6.6.6.6.6.6.6.6.6.6.6.6.6.6.6.6.6.6.6.6.6.6.6.6.6.6.6.6.6.6.6.6.6.6.6.6.6.6.6.6.6.6.6.6.",
"6.6.6.6.6.6.6.6.6.6.6.6.6.6.6.6.6.6.6.6.6.6.6.6.6.6.6.6.6.6.6.6.6.6.6.6.6.6.6.6.6.6.6.6.6.6.6.6.6.6.6.6.6.6.6.6.6.6.6.6.",
"6.6.6.6.6.6.6.6.6.6.6.6.6.6.6.6.6.6.6.6.6.6.6.6.6.6.6.6.6.6.6.6.6.6.6.6.6.6.6.6.6.6.6.6.6.6.6.6.6.6.6.6.6.6.6.6.6.6.6.6.",
"6.6.6.6.6.6.6.6.6.6.6.6.6.6.6.6.6.6.6.6.6.6.6.6.6.6.6.6.6.6.6.6.6.6.6.6.6.6.6.6.6.6.6.6.6.6.6.6.6.6.6.6.6.6.6.6.6.6.6.6.",
"6.6.6.6.6.6.6.6.6.6.6.6.6.6.6.6.6.6.6.6.6.6.6.6.6.6.6.6.6.6.6.6.6.6.6.6.6.6.6.6.6.6.6.6.6.6.6.6.6.6.6.6.6.6.6.6.6.6.6.6.",
"6.6.6.6.6.6.6.6.6.6.6.6.6.6.6.6.6.6.6.6.6.6.6.6.6.6.6.6.6.6.6.6.6.6.6.6.6.6.6.6.6.6.6.6.6.6.6.6.6.6.6.6.6.6.6.6.6.6.6.6.",
"6.6.6.6.6.6.6.6.6.6.6.6.6.6.6.6.6.6.6.6.6.6.6.6.6.6.6.6.6.6.6.6.6.6.6.6.6.6.6.6.6.6.6.6.6.6.6.6.6.6.6.6.6.6.6.6.6.6.6.6.",
"6.6.6.6.6.6.6.6.6.6.6.6.6.6.6.6.6.6.6.6.6.6.6.6.6.6.6.6.6.6.6.6.6.6.6.6.6.6.6.6.6.6.6.6.6.6.6.6.6.6.6.6.6.6.6.6.6.6.6.6.",
"6.6.6.6.6.6.6.6.6.6.6.6.6.6.6.6.6.6.6.6.6.6.6.6.>.R P 6 + o + 6 L ;.6.6.6.6.6.6.6.6.6.6.6.6.6.6.6.6.6.6.6.6.6.6.6.6.6.6.",
"6.6.6.6.6.6.6.6.6.6.6.6.6.6.6.6.6.6.6.6.6.6.3.w X                   0 #.6.6.6.6.6.6.6.6.6.6.6.6.6.6.6.6.6.6.6.6.6.6.6.6.",
"6.6.6.6.6.6.6.6.6.6.6.6.6.6.6.6.6.6.6.6.6.3.:   X W 3.#.;.3.;.W 8       w 6.6.6.6.6.6.6.6.6.6.6.6.6.6.6.6.6.6.6.6.6.6.6.",
"6.6.6.6.6.6.6.6.6.6.6.6.6.6.6.6.6.6.6.6.6.9   + $.6.6.6.6.6.6.6.6.$.w .   L 6.6.6.6.6.6.6.6.6.6.6.6.6.6.6.6.6.6.6.6.6.6.",
"6.6.6.6.6.6.6.6.5.6.5.<.o.] J G D C C G Y   X +.6.6.6.6.6.6.6.6.6.6.6.U     h z k f F 6.6.6.6.6.6.6.6.6.6.6.6.6.6.6.6.6.",
"6.6.6.6.6.6.6.=.k z a y u u u p i u u u %   P -.6.6.6.6.6.6.6.6.6.6.6.( ,   5 B F { 2.6.6.6.6.6.6.6.6.6.6.6.6.6.6.6.6.6.",
"6.6.6.6.6.6.6.-.F 2.<.<.4.5.5.6.6.5.5.@.  o 3.%.6.6.6.6.6.6.6.6.6.6.6.6.#.  + 6.6.6.6.6.6.6.6.6.6.6.6.6.6.6.6.6.6.6.6.6.",
"6.6.6.6.6.6.6.*.F 6.6.6.6.6.6.6.6.6.6.P   0 6._ 6.6.6.6.6.6.6.6.6.6.6.6.;.  o *.) F *.6.6.6.6.6.6.6.6.6.6.6.6.6.6.6.6.6.",
"6.6.6.6.6.6.6.*.C 6.6.6.6.6.6.6.6.6.6.0   I 6.G 4.6.6.6.6.6.6.6.6.6.6.6.!   $ i V C G 6.6.6.6.6.6.6.6.6.6.6.6.6.6.6.6.6.",
"6.6.6.6.6.6.6.| M 6.6.6.6.6.6.6.6.6.6.7   ! 6.C %.6.6.6.6.6.6.6.6.6.6.6.2   b 4.%.u { 6.6.6.6.6.6.6.6.6.6.6.6.6.6.6.6.6.",
"6.6.6.6.6.6.6.) x 6.6.6.6.6.6.6.6.6.6.q   e 6.C _ 6.6.6.6.6.6.6.6.6.6.I   o >.] u a ' =.6.6.6.6.6.6.6.6.6.6.6.6.6.6.6.6.",
"6.6.6.6.6.6.6.D z 6.6.6.6.6.6.6.6.6.6.O.  X O.C V 6.6.6.6.6.6.6.6.6.P     E G u j D u y d B | 6.6.6.6.6.6.6.6.6.6.6.6.6.",
"6.6.6.6.6.6.6.c x 6.6.1.%.` H F F H ` &.q   X v f | ] { X.-.6.6.$.9     K M y f -.6.<.` C N B 6.6.6.6.6.6.6.6.6.6.6.6.6.",
"6.6.6.6.6.6.6.f x M j y y y y y y y u y / 0     > [ -.-.1.>.~ 9 .   X R g u k <.6.6.6.6.6.6.6.6.6.6.6.6.6.6.6.6.6.6.6.6.",
"6.6.6.6.6.6.4.u N ,.{ ] | X.*.=.=.-.=.=.5.6.I .     X + +       . 9 $.=.y N 2.6.6.6.6.6.6.6.6.6.6.6.6.6.6.6.6.6.6.6.6.6.",
"6.6.6.6.6.6.<.y V 6.6.6.6.6.6.6.6.6.6.6.6.6.6.S < O       X : K $.6.6.6.=.4.6.6.6.6.6.6.6.6.6.6.6.6.6.6.6.6.6.6.6.6.6.6.",
"6.6.6.6.6.6.=.u V 6.6.6.6.6.6.6.6.6.6.6.6.6.6.( y ] >.~ X ;.6.6.6.6.6.6.6.6.6.6.6.6.6.6.6.6.6.6.6.6.6.6.6.6.6.6.6.6.6.6.",
"6.6.6.6.6.6.-.y g ..=.=.*.| ] _ ) =.6.6.6.6.6.( y ( 6.~   R 6.6.6.6.6.6.6.6.6.6.6.6.5.-.%.| ` ) ( J -.6.6.6.6.6.6.6.6.6.",
"6.6.6.6.6.6.6.l y y y y y y y y y x 6.6.6.6.6.` y F 6.W   e 6.6.6.6.6.6.6.6.4.| G c i y y y y u y N 1.6.6.6.6.6.6.6.6.6.",
"6.6.6.6.6.6.6.2.{ Z N M C H ] | ..=.6.6.6.6.6.| y G 6.W   w 6.6.6.6.6.5...Z u y y y u f M Z H { =.6.6.6.6.6.6.6.6.6.6.6.",
"6.6.6.6.6.6.6.6.6.6.6.6.6.6.6.6.6.6.6.6.6.6.6.<.u ] 6.!   7 6.6.6.5.%.N i f N ( | =.%.5.6.6.6.6.6.6.6.6.6.6.6.6.6.6.6.6.",
"6.6.6.6.6.6.6.6.6.6.6.6.6.6.6.6.6.6.6.6.6.6.6.6.<.6.6.~   & ;.6.6.6.5.2.4.6.6.6.6.-.x 6.6.6.6.6.6.6.6.6.6.6.6.6.6.6.6.6.",
"6.6.6.6.6.6.6.6.6.6.6.6.6.6.6.6.6.6.6.6.6.6.6.6.$.L *       X e #.6.6.6.6.6.6.6.6.o.a 5.6.6.6.6.6.6.6.6.6.6.6.6.6.6.6.6.",
"6.6.6.6.6.6.6.6.6.6.6.6.6.6.6.6.6.6.6.6.6.>.I 6       + q P .     7 +.6.6.6.6.6.6.{ u 2.6.6.6.6.6.6.6.6.6.6.6.6.6.6.6.6.",
"6.6.6.6.6.6.6.6.6.6.6.6.6.6.6.6.6.6.:.Y 4 .     X 8 W 6.I #.$.q .     6 ~ 6.6.6.6.| y *.6.6.6.6.6.6.6.6.6.6.6.6.6.6.6.6.",
"6.6.6.6.6.6.6.6.6.6.6.6.6.6.6.3.U 3 .       @ s :.6.6.6.L ! 6.6.>.K X     * R 3.6.-.y %.6.6.6.6.6.6.6.6.6.6.6.6.6.6.6.6.",
"6.6.6.6.6.6.6.6.6.6.6.3.#.P 8 .       - n ^ z y | 6.6.6.K L 6.6.6.6.>.L +     * T D a u B 4.6.6.6.6.6.6.6.6.6.6.6.6.6.6.",
"6.6.6.6.6.6.6.6.6.6.6.6         ; P ;.6.6.6.G y _ 6.6.6.L q 6.6.6.6.6.6.3.R #     3 ) ) y { 6.6.6.6.6.6.6.6.6.6.6.6.6.6.",
"6.6.6.6.6.6.6.6.6.6.6.w * 9 I ;.6.6.6.6.6.-.i y %.6.6.6.L 6 6.6.6.6.6.6.6.6.} m o X ;.*.y C 6.6.6.6.6.6.6.6.6.6.6.6.6.6.",
"6.6.6.6.6.6.6.6.6.6.6.6.6.6.6.6.6.6.6.5.*.j y C 6.6.6.6.P : 6.6.6.6.6.6.6.6.6.6.6.3.6.] y Z 6.6.6.6.6.6.6.6.6.6.6.6.6.6.",
"6.6.6.6.6.6.6.6.6.6.6.6.6.6.6.6.6...j u y y l 1.6.6.6.6.P & 6.6.6.6.6.6.6.6.6.6.6.6.1.g y { 6.6.6.6.6.6.6.6.6.6.6.6.6.6.",
"6.6.6.6.6.6.6.6.6.6.6.6.6.6.6.6.4.p u u j H 1.6.6.6.6.6.q X 6.6.6.6.6.6.6.6.6.6.6.2.B y z 5.6.6.6.6.6.6.6.6.6.6.6.6.6.6.",
"6.6.6.6.6.6.6.6.6.6.6.6.6.6.6.6.X.y z 5.6.6.6.6.6.6.6.6.6 . 3.6.6.6.6.6.6.<.{ G F j y d -.6.6.6.6.6.6.6.6.6.6.6.6.6.6.6.",
"6.6.6.6.6.6.6.6.6.6.6.6.6.6.6.6.' u Z 6.6.6.6.6.6.6.6.6.  X 6.6.6.6.6.6.=.p y y y y l *.6.6.6.6.6.6.6.6.6.6.6.6.6.6.6.6.",
"6.6.6.6.6.6.6.6.6.6.6.6.6.6.6.6._ y H 6.6.4.o.' H G -.$.  + 6.6.6.6.6.5.j u ( _ _ o.5.6.6.6.6.6.6.6.6.6.6.6.6.6.6.6.6.6.",
"6.6.6.6.6.6.6.6.6.6.6.6.6.6.6.6.) y H | N u y y u y =.L   8 K W 6.6.6.%.y k 4.6.6.6.6.6.6.6.6.6.6.6.6.6.6.6.6.6.6.6.6.6.",
"6.6.6.6.6.6.6.6.6.6.6.6.6.6.6.6.X.y y y u u x D )  .6     ! .   L 6.6.' y F 6.6.6.6.6.6.6.6.6.6.6.6.6.6.6.6.6.6.6.6.6.6.",
"6.6.6.6.6.6.6.6.6.6.6.6.6.6.6.6.6.J l M ] 1.6.6.+.+   o P 6.R     8 $._ y H 6.6.6.6.5.&._ C x j d ,.6.6.6.6.6.6.6.6.6.6.",
"6.6.6.6.6.6.6.6.6.6.6.6.6.6.6.6.6.6.6.6.6.6.6.W X   6 ;.6.6.6.! o   X A y g -.6.-.H f y y y y y g 4.6.6.6.6.6.6.6.6.6.6.",
"6.6.6.6.6.6.6.6.6.6.6.6.6.6.6.6.6.6.6.6.6.6.L     0 3.6.6.6.6.6.;.8     1 t a M u y y j F { %.-.4.6.6.6.6.6.6.6.6.6.6.6.",
"6.6.6.6.6.6.6.6.6.6.6.6.6.6.6.6.6.6.6.6.;.8     L 6.6.6.6.6.6.6.6.6.R X   . r y y Z *.6.6.6.6.6.6.6.6.6.6.6.6.6.6.6.6.6.",
"6.6.6.6.6.6.6.6.6.6.6.6.6.6.6.6.6.6.6.O.+   X ! 6.6.6.6.6.6.6.6.6.6.6.;.8     = Q 6.6.6.6.6.6.6.6.6.6.6.6.6.6.6.6.6.6.6.",
"6.6.6.6.6.6.6.6.6.6.6.6.6.6.6.6.6.6.I     : $.6.6.6.6.6.6.6.6.6.6.6.6.6.6.W +     8 $.6.6.6.6.6.6.6.6.6.6.6.6.6.6.6.6.6.",
"6.6.6.6.6.6.6.6.6.6.6.6.6.6.6.6.3.0     e 6.6.6.6.6.6.6.6.6.6.6.6.6.6.6.6.6.3.L X   + 6.6.6.6.6.6.6.6.6.6.6.6.6.6.6.6.6.",
"6.6.6.6.6.6.6.6.6.6.6.6.6.6.6.6.I   X W 6.6.6.6.6.6.6.6.6.6.6.6.6.6.6.6.6.6.6.6.;.8 : 6.6.6.6.6.6.6.6.6.6.6.6.6.6.6.6.6.",
"6.6.6.6.6.6.6.6.6.6.6.6.6.6.6.6.;.q #.6.6.6.6.6.6.6.6.6.6.6.6.6.6.6.6.6.6.6.6.6.6.6.6.6.6.6.6.6.6.6.6.6.6.6.6.6.6.6.6.6.",
"6.6.6.6.6.6.6.6.6.6.6.6.6.6.6.6.6.6.6.6.6.6.6.6.6.6.6.6.6.6.6.6.6.6.6.6.6.6.6.6.6.6.6.6.6.6.6.6.6.6.6.6.6.6.6.6.6.6.6.6.",
"6.6.6.6.6.6.6.6.6.6.6.6.6.6.6.6.6.6.6.6.6.6.6.6.6.6.6.6.6.6.6.6.6.6.6.6.6.6.6.6.6.6.6.6.6.6.6.6.6.6.6.6.6.6.6.6.6.6.6.6.",
"6.6.6.6.6.6.6.6.6.6.6.6.6.6.6.6.6.6.6.6.6.6.6.6.6.6.6.6.6.6.6.6.6.6.6.6.6.6.6.6.6.6.6.6.6.6.6.6.6.6.6.6.6.6.6.6.6.6.6.6.",
"6.6.6.6.6.6.6.6.6.6.6.6.6.6.6.6.6.6.6.6.6.6.6.6.6.6.6.6.6.6.6.6.6.6.6.6.6.6.6.6.6.6.6.6.6.6.6.6.6.6.6.6.6.6.6.6.6.6.6.6."
};
