/* XPM */
static char *result[] = {
/* columns rows colors chars-per-pixel */
"60 60 128 2 ",
"   c #FF002F",
".  c #FF0230",
"X  c #FF0331",
"o  c #FF0533",
"O  c #FF0734",
"+  c #FF0936",
"@  c #FF0B37",
"#  c #FF0D39",
"$  c #FF0F3B",
"%  c #FF103C",
"&  c #FF113C",
"*  c #FF1540",
"=  c #FF1640",
"-  c #FF1741",
";  c #FF1943",
":  c #FF1A44",
">  c #FF1B45",
",  c #FF1D46",
"<  c #FF1F48",
"1  c #FF2049",
"2  c #FF2149",
"3  c #FF234B",
"4  c #FF254D",
"5  c #FF274E",
"6  c #FF2950",
"7  c #FF2C52",
"8  c #FF2D53",
"9  c #FF3156",
"0  c #FF3257",
"q  c #FF3358",
"w  c #FF365B",
"e  c #FF385C",
"r  c #FF3A5E",
"t  c #FF3C5F",
"y  c #FF3E61",
"u  c #FF4063",
"i  c #FF4264",
"p  c #FF4466",
"a  c #FF4869",
"s  c #FF4C6C",
"d  c #FF4E6E",
"f  c #FF5070",
"g  c #FF5271",
"h  c #FF5473",
"j  c #FF5876",
"k  c #FF5A78",
"l  c #FF5C7A",
"z  c #FF5E7B",
"x  c #FF607D",
"c  c #FF627E",
"v  c #FF6480",
"b  c #FF6581",
"n  c #FF6682",
"m  c #FF6984",
"M  c #FF6B86",
"N  c #FF6D87",
"B  c #FF6F89",
"V  c #FF718B",
"C  c #FF758E",
"Z  c #FF7790",
"A  c #FF7991",
"S  c #FF7B93",
"D  c #FF7D94",
"F  c #FF7F96",
"G  c #FF8198",
"H  c #FF8399",
"J  c #FF859B",
"K  c #FF879D",
"L  c #FF899E",
"P  c #FF8BA0",
"I  c #FF8DA2",
"U  c #FF8FA3",
"Y  c #FF91A5",
"T  c #FF93A6",
"R  c #FF95A8",
"E  c #FF96A9",
"W  c #FF97AA",
"Q  c #FF99AB",
"!  c #FF9CAE",
"~  c #FF9EAF",
"^  c #FFA0B1",
"/  c #FFA2B3",
"(  c #FFA4B4",
")  c #FFA6B6",
"_  c #FFA8B8",
"`  c #FFAAB9",
"'  c #FFACBB",
"]  c #FFAEBC",
"[  c #FFB2C0",
"{  c #FFB4C1",
"}  c #FFB6C3",
"|  c #FFBAC6",
" . c #FFBCC8",
".. c #FFBEC9",
"X. c pink",
"o. c #FFC1CC",
"O. c #FFC2CD",
"+. c #FFC4CE",
"@. c #FFC6D0",
"#. c #FFC8D2",
"$. c #FFCAD3",
"%. c #FFCCD5",
"&. c #FFCFD7",
"*. c #FFD1D9",
"=. c #FFD3DB",
"-. c #FFD5DC",
";. c #FFD7DE",
":. c #FFD9E0",
">. c #FFDBE1",
",. c #FFDDE3",
"<. c #FFDFE4",
"1. c #FFE1E6",
"2. c #FFE3E8",
"3. c #FFE5E9",
"4. c #FFE7EB",
"5. c #FFE9ED",
"6. c #FFEBEE",
"7. c #FFECEF",
"8. c #FFEDF0",
"9. c #FFEFF1",
"0. c #FFF1F3",
"q. c #FFF3F5",
"w. c #FFF5F6",
"e. c #FFF7F8",
"r. c #FFF9FA",
"t. c #FFFBFB",
"y. c #FFFDFD",
"u. c white",
/* pixels */
"u.u.u.u.u.u.u.u.u.u.u.u.u.u.u.u.u.u.u.u.u.u.u.u.u.u.u.u.u.u.u.u.u.u.u.u.u.u.u.u.u.u.u.u.u.u.u.u.u.u.u.u.u.u.u.u.u.u.u.u.",
"u.u.u.u.u.u.u.u.u.u.u.u.u.u.u.u.u.u.u.u.u.u.u.u.u.u.u.u.u.u.u.u.u.u.u.u.u.u.u.u.u.u.u.u.u.u.u.u.u.u.u.u.u.u.u.u.u.u.u.u.",
"u.u.u.u.u.u.u.u.u.u.u.u.u.u.u.u.u.u.u.u.u.u.u.u.u.u.u.u.u.u.u.u.u.u.u.u.u.u.u.u.u.u.u.u.u.u.u.u.u.u.u.u.u.u.u.u.u.u.u.u.",
"u.u.u.u.u.u.u.u.u.u.u.u.u.u.u.u.u.u.u.u.u.u.u.u.u.u.u.u.u.u.u.u.u.u.u.u.u.u.u.u.u.u.u.u.u.u.u.u.u.u.u.u.u.u.u.u.u.u.u.u.",
"u.u.u.u.u.u.u.u.u.u.u.u.u.u.u.u.u.u.u.u.u.u.u.u.u.u.u.u.u.u.u.u.u.u.u.u.u.u.u.u.u.u.u.u.u.u.u.u.u.u.u.u.u.u.u.u.u.u.u.u.",
"u.u.u.u.u.u.u.u.u.u.u.u.u.u.u.u.u.u.u.u.u.u.u.u.u.u.u.u.u.u.u.u.u.u.u.u.u.u.u.u.u.u.u.u.u.u.u.u.u.u.u.u.u.u.u.u.u.u.u.u.",
"u.u.u.u.u.u.u.u.u.u.u.u.u.u.u.u.u.u.u.u.u.u.u.u.u.u.u.u.u.u.u.u.u.u.u.u.u.u.u.u.u.u.u.u.u.u.u.u.u.u.u.u.u.u.u.u.u.u.u.u.",
"u.u.u.u.u.u.u.u.u.u.u.u.u.u.u.u.u.u.u.u.u.u.u.u.u.u.u.u.u.u.u.u.u.u.u.u.u.u.u.u.u.u.u.u.u.u.u.u.u.u.u.u.u.u.u.u.u.u.u.u.",
"u.u.u.u.u.u.u.u.u.u.u.u.u.u.u.u.u.u.u.u.u.u.u.u.u.u.u.u.u.u.u.u.u.u.u.u.u.u.u.u.u.u.u.u.u.u.u.u.u.u.u.u.u.u.u.u.u.u.u.u.",
"u.u.u.u.u.u.u.u.u.u.u.u.u.u.u.u.u.u.u.u.u.u.u.u.u.u.u.u.u.u.u.u.u.u.u.u.u.u.u.u.u.u.u.u.u.u.u.u.u.u.u.u.u.u.u.u.u.u.u.u.",
"u.u.u.u.u.u.u.u.u.u.u.u.u.u.u.u.u.u.u.u.u.u.u.u.u.u.u.u.u.u.u.u.u.u.u.u.u.u.u.u.u.u.u.u.u.u.u.u.u.u.u.u.u.u.u.u.u.u.u.u.",
"u.u.u.u.u.u.u.u.u.u.u.u.u.u.u.u.u.u.u.u.u.u.u.u.u.u.u.u.u.u.u.u.u.u.u.u.u.u.u.u.u.u.u.u.u.u.u.u.u.u.u.u.u.u.u.u.u.u.u.u.",
"u.u.u.u.u.u.u.u.u.u.u.u.u.u.u.u.u.u.u.u.u.u.u.u.u.u.u.u.u.u.u.u.u.u.u.u.u.u.u.u.u.u.u.u.u.u.u.u.u.u.u.u.u.u.u.u.u.u.u.u.",
"u.u.u.u.u.u.u.u.u.u.u.u.u.u.u.u.u.u.u.u.u.u.u.u.u.u.u.u.u.u.u.u.u.u.u.u.u.u.u.u.u.u.u.u.u.u.u.u.u.u.u.u.u.u.u.u.u.u.u.u.",
"u.u.u.u.u.u.u.u.t.u.e.3. .Q F V n l l V #.u.u.r.u.u.u.u.u.u.u.u.u.u.u.*.n a q q 6 ; m u.u.u.u.u.u.u.u.u.u.u.u.u.u.u.u.u.",
"u.u.u.u.u.u.u.=.7 0 &   o O o # @ o o o g u.r.1.u.u.u.u.u.u.u.u.u.u.u.H < y g g N _ 9.u.u.u.u.u.u.u.u.u.u.u.u.u.u.u.u.u.",
"u.u.u.u.u.u.u.:.N 8.3.3.0.r.r.u.t.r.r.w.u.u.t.X.u.u.u.u.u.u.u.u.u.u.u.u.r.u.u.u.u.u.u.u.u.u.u.u.u.u.u.u.u.u.u.u.u.u.u.u.",
"u.u.u.u.u.u.u.&.N u.u.u.u.u.u.u.u.u.u.u.u.u.u.Y u.u.u.u.u.u.u.u.u.u.u.u.u.u.u.%.L N $.u.u.u.u.u.u.u.u.u.u.u.u.u.u.u.u.u.",
"u.u.u.u.u.u.u.%.l u.u.u.u.u.u.u.u.u.u.u.u.u.u.V 0.u.u.u.u.u.u.u.u.u.u.u.u.$.a + h z C u.u.u.u.u.u.u.u.u.u.u.u.u.u.u.u.u.",
"u.u.u.u.u.u.u.' p u.u.u.u.u.u.u.u.u.u.u.u.u.u.l @.u.u.u.u.u.u.u.u.u.u.u.D i ( 0.O.O / u.u.u.u.u.u.u.u.u.u.u.u.u.u.u.u.u.",
"u.u.u.u.u.u.u.L e u.u.u.u.u.u.u.u.u.u.u.u.u.u.z U u.u.u.u.u.u.u.u.u.u.u.u.u.u.~ . = E ;.t.u.u.u.u.u.u.u.u.u.u.u.u.u.u.u.",
"u.u.u.u.u.u.u.v q u.u.u.u.u.u.u.u.u.u.u.u.u.u.z h u.u.u.u.u.u.u.u.u.u.u.u.q.C   1 b o   - g ] u.u.u.u.u.u.u.u.u.u.u.u.u.",
"u.u.u.u.u.u.u.u y u.y.5.X.R A B N Z T #.y.u.u.v : ' Q / | >.u.u.u.u.u.u.3.p   , <.u.3.T z a g u.u.u.u.u.u.u.u.u.u.u.u.u.",
"u.u.u.u.u.u.u.- r i 2 X                 P u.u.c   7.<.>.6.u.u.u.u.u.u.w.2   8 2.u.u.u.u.u.u.u.u.u.u.u.u.u.u.u.u.u.u.u.u.",
"u.u.u.u.u.u.q.o a 1.) ~ _ | $.-.=.,.-.*.e.u.u.V   &.u.u.u.u.u.u.u.u.u.;.  a 9.u.u.u.u.u.u.u.u.u.u.u.u.u.u.u.u.u.u.u.u.u.",
"u.u.u.u.u.u.4.  j u.u.u.u.u.u.u.u.u.u.u.u.u.u.Z   _ u.u.u.u.u.u.u.u.u.u.;.w.u.u.u.u.u.u.u.u.u.u.u.u.u.u.u.u.u.u.u.u.u.u.",
"u.u.u.u.u.u.-.  k u.u.u.u.u.u.u.u.u.u.u.u.u.u.J   Q u.u.u.u.u.u.u.u.u.u.u.u.u.u.u.u.u.u.u.u.u.u.u.u.u.u.u.u.u.u.u.u.u.u.",
"u.u.u.u.u.u.>.  < [ ;.=.$.` Q I P =.u.u.u.u.u.G   G u.u.u.u.u.u.u.u.u.u.u.u.u.u.u.u.r.>.X.] R L G F >.u.u.u.u.u.u.u.u.u.",
"u.u.u.u.u.u.y.q                   e u.u.u.u.u.U   N u.u.u.u.u.u.u.u.u.u.u.u.9.] V y +             s 5.u.u.u.u.u.u.u.u.u.",
"u.u.u.u.u.u.u.9.( x a p l S Q _ { -.u.u.u.u.u.]   V u.u.u.u.u.u.u.u.u.r.} x O       o > p x S ^ -.u.u.u.u.u.u.u.u.u.u.u.",
"u.u.u.u.u.u.u.u.u.u.u.u.u.u.u.u.u.u.u.u.u.u.u.3.o ~ u.u.u.u.u.u.u.r.O.d + - d G ` *.+.r.u.u.u.u.u.u.u.u.u.u.u.u.u.u.u.u.",
"u.u.u.u.u.u.u.u.u.u.u.u.u.u.u.u.u.u.u.u.u.u.u.u.3.u.u.u.u.u.u.u.u.u.e.9.w.u.u.u.u.<.e u.u.u.u.u.u.u.u.u.u.u.u.u.u.u.u.u.",
"u.u.u.u.u.u.u.u.u.u.u.u.u.u.u.u.u.u.u.u.u.u.u.u.u.u.u.u.u.u.u.u.u.u.u.u.u.u.u.u.u. .$ t.u.u.u.u.u.u.u.u.u.u.u.u.u.u.u.u.",
"u.u.u.u.u.u.u.u.u.u.u.u.u.u.u.u.u.u.u.u.u.u.u.u.u.u.u.u.u.u.u.u.u.u.u.u.u.u.u.u.u.) o 8.u.u.u.u.u.u.u.u.u.u.u.u.u.u.u.u.",
"u.u.u.u.u.u.u.u.u.u.u.u.u.u.u.u.u.u.0.O.W ( <.u.u.u.u.u.u.u.u.u.u.u.u.u.u.u.u.u.u.`   &.u.u.u.u.u.u.u.u.u.u.u.u.u.u.u.u.",
"u.u.u.u.u.u.u.u.u.u.u.u.u.u.u.u.-.N #       o l w.u.u.u.u.u.u.u.u.u.u.u.u.u.u.u.u.:.  o.u.u.u.u.u.u.u.u.u.u.u.u.u.u.u.u.",
"u.u.u.u.u.u.u.u.u.u.u.u.u.u.u.B X 4 N ` | ` w   ] u.u.u.u.u.u.u.u.u.u.u.u.u.u.u.%.n % O f w.u.u.u.u.u.u.u.u.u.u.u.u.u.u.",
"u.u.u.u.u.u.u.u.u.u.u.u.u.u.u.$.-.r.u.u.u.u.V   P u.u.u.u.u.u.u.u.u.u.u.u.u.;.M 5 x K K   ^ u.u.u.u.u.u.u.u.u.u.u.u.u.u.",
"u.u.u.u.u.u.u.u.u.u.u.u.u.u.u.u.u.u.u.u.u.:.+   @.u.u.u.u.u.u.u.u.u.u.u.u.u.{ *.t.u.u.%.  l u.u.u.u.u.u.u.u.u.u.u.u.u.u.",
"u.u.u.u.u.u.u.u.u.u.u.u.u.u.u.u.u.u.u.r.%.3   l u.u.u.u.u.u.u.u.u.u.u.u.u.u.u.u.u.u.u.Q   x u.u.u.u.u.u.u.u.u.u.u.u.u.u.",
"u.u.u.u.u.u.u.u.u.u.u.u.u.u.u.u.u.{ 4 X     9 9.u.u.u.u.u.u.u.u.u.u.u.u.u.u.u.u.u.u.8.<   ( u.u.u.u.u.u.u.u.u.u.u.u.u.u.",
"u.u.u.u.u.u.u.u.u.u.u.u.u.u.u.u.q.#   O < A 6.u.u.u.u.u.u.u.u.u.u.u.u.u.u.u.u.u.u.0.f   q r.u.u.u.u.u.u.u.u.u.u.u.u.u.u.",
"u.u.u.u.u.u.u.u.u.u.u.u.u.u.u.u.|   w t.u.u.u.u.u.u.u.u.u.u.u.u.u.u.u.u.u.3.^ Z B 2   * >.u.u.u.u.u.u.u.u.u.u.u.u.u.u.u.",
"u.u.u.u.u.u.u.u.u.u.u.u.u.u.u.u.W   c u.u.u.u.u.u.u.u.u.u.u.u.u.u.u.u.u.=.#         q %.u.u.u.u.u.u.u.u.u.u.u.u.u.u.u.u.",
"u.u.u.u.u.u.u.u.u.u.u.u.u.u.u.u.P   Z u.u.0...R A V <.u.u.u.u.u.u.u.u.r.4   H P P  .t.u.u.u.u.u.u.u.u.u.u.u.u.u.u.u.u.u.",
"u.u.u.u.u.u.u.u.u.u.u.u.u.u.u.u.P   Z _ d o         :.u.u.u.u.u.u.u.u.O.  8 w.u.u.u.u.u.u.u.u.u.u.u.u.u.u.u.u.u.u.u.u.u.",
"u.u.u.u.u.u.u.u.u.u.u.u.u.u.u.u. .        X t n L $.u.u.u.u.u.u.u.u.u.R   M u.u.u.u.u.u.u.u.u.u.u.u.u.u.u.u.u.u.u.u.u.u.",
"u.u.u.u.u.u.u.u.u.u.u.u.u.u.u.u.y.S 9 p ! 6.u.u.u.u.u.u.u.u.u.u.u.u.u.P   Z u.u.u.u.e.@.I k e 4 * 1.u.u.u.u.u.u.u.u.u.u.",
"u.u.u.u.u.u.u.u.u.u.u.u.u.u.u.u.u.u.u.u.u.u.u.u.u.u.u.u.u.u.u.u.u.u.u.|   , <.u.,.S -           , q.u.u.u.u.u.u.u.u.u.u.",
"u.u.u.u.u.u.u.u.u.u.u.u.u.u.u.u.u.u.u.u.u.u.u.u.u.u.u.u.u.u.u.u.u.u.u.t.t   $ p X     5 m ^ O.,.w.u.u.u.u.u.u.u.u.u.u.u.",
"u.u.u.u.u.u.u.u.u.u.u.u.u.u.u.u.u.u.u.u.u.u.u.u.u.u.u.u.u.u.u.u.u.u.u.u.2.d     X c $.y.u.u.u.u.u.u.u.u.u.u.u.u.u.u.u.u.",
"u.u.u.u.u.u.u.u.u.u.u.u.u.u.u.u.u.u.u.u.u.u.u.u.u.u.u.u.u.u.u.u.u.u.u.u.u.u.*...6.u.u.u.u.u.u.u.u.u.u.u.u.u.u.u.u.u.u.u.",
"u.u.u.u.u.u.u.u.u.u.u.u.u.u.u.u.u.u.u.u.u.u.u.u.u.u.u.u.u.u.u.u.u.u.u.u.u.u.u.u.u.u.u.u.u.u.u.u.u.u.u.u.u.u.u.u.u.u.u.u.",
"u.u.u.u.u.u.u.u.u.u.u.u.u.u.u.u.u.u.u.u.u.u.u.u.u.u.u.u.u.u.u.u.u.u.u.u.u.u.u.u.u.u.u.u.u.u.u.u.u.u.u.u.u.u.u.u.u.u.u.u.",
"u.u.u.u.u.u.u.u.u.u.u.u.u.u.u.u.u.u.u.u.u.u.u.u.u.u.u.u.u.u.u.u.u.u.u.u.u.u.u.u.u.u.u.u.u.u.u.u.u.u.u.u.u.u.u.u.u.u.u.u.",
"u.u.u.u.u.u.u.u.u.u.u.u.u.u.u.u.u.u.u.u.u.u.u.u.u.u.u.u.u.u.u.u.u.u.u.u.u.u.u.u.u.u.u.u.u.u.u.u.u.u.u.u.u.u.u.u.u.u.u.u.",
"u.u.u.u.u.u.u.u.u.u.u.u.u.u.u.u.u.u.u.u.u.u.u.u.u.u.u.u.u.u.u.u.u.u.u.u.u.u.u.u.u.u.u.u.u.u.u.u.u.u.u.u.u.u.u.u.u.u.u.u.",
"u.u.u.u.u.u.u.u.u.u.u.u.u.u.u.u.u.u.u.u.u.u.u.u.u.u.u.u.u.u.u.u.u.u.u.u.u.u.u.u.u.u.u.u.u.u.u.u.u.u.u.u.u.u.u.u.u.u.u.u.",
"u.u.u.u.u.u.u.u.u.u.u.u.u.u.u.u.u.u.u.u.u.u.u.u.u.u.u.u.u.u.u.u.u.u.u.u.u.u.u.u.u.u.u.u.u.u.u.u.u.u.u.u.u.u.u.u.u.u.u.u.",
"u.u.u.u.u.u.u.u.u.u.u.u.u.u.u.u.u.u.u.u.u.u.u.u.u.u.u.u.u.u.u.u.u.u.u.u.u.u.u.u.u.u.u.u.u.u.u.u.u.u.u.u.u.u.u.u.u.u.u.u."
};
